<svg xmlns="http://www.w3.org/2000/svg" xmlns:xlink="http://www.w3.org/1999/xlink" width="500" zoomAndPan="magnify" viewBox="0 0 375 374.999991" height="500" preserveAspectRatio="xMidYMid meet" version="1.0"><defs><g/><clipPath id="aa91a4eb13"><path d="M 28.695312 187.5 L 346.296875 187.5 L 346.296875 212.25 L 28.695312 212.25 Z M 28.695312 187.5 " clip-rule="nonzero"/></clipPath></defs><g fill="#ffffff" fill-opacity="1"><g transform="translate(46.701331, 195.15885)"><g><path d="M 33.597656 0 L 33.597656 -6.398438 L 8 -6.398438 L 8 -25.597656 L 33.597656 -25.597656 L 33.597656 -31.996094 L 8 -31.996094 C 4.480469 -31.996094 1.601562 -29.117188 1.601562 -25.597656 L 1.601562 -6.398438 C 1.601562 -2.878906 4.480469 0 8 0 Z M 33.597656 0 "/></g></g></g><g fill="#ffffff" fill-opacity="1"><g transform="translate(81.897839, 195.15885)"><g><path d="M 27.199219 0 C 30.757812 0 33.597656 -2.917969 33.597656 -6.398438 L 33.597656 -25.597656 C 33.597656 -29.117188 30.71875 -31.996094 27.199219 -31.996094 L 8 -31.996094 C 4.480469 -31.996094 1.601562 -29.117188 1.601562 -25.597656 L 1.601562 -6.398438 C 1.601562 -2.878906 4.480469 0 8 0 Z M 8 -25.597656 L 27.199219 -25.597656 L 27.199219 -6.398438 L 8 -6.398438 Z M 8 -25.597656 "/></g></g></g><g fill="#ffffff" fill-opacity="1"><g transform="translate(117.094347, 195.15885)"><g><path d="M 8 0 L 8 -21.078125 L 28.117188 -0.960938 C 28.71875 -0.359375 29.519531 0 30.398438 0 C 32.15625 0 33.597656 -1.441406 33.597656 -3.199219 L 33.597656 -31.996094 L 27.199219 -31.996094 L 27.199219 -10.917969 L 7.078125 -31.039062 C 6.480469 -31.636719 5.679688 -31.996094 4.800781 -31.996094 C 3.039062 -31.996094 1.601562 -30.558594 1.601562 -28.796875 L 1.601562 0 Z M 8 0 "/></g></g></g><g fill="#ffffff" fill-opacity="1"><g transform="translate(152.290854, 195.15885)"><g><path d="M 33.597656 -31.996094 L 1.601562 -31.996094 L 1.601562 -25.597656 L 14.398438 -25.597656 L 14.398438 0 L 20.796875 0 L 20.796875 -25.597656 L 33.597656 -25.597656 Z M 33.597656 -31.996094 "/></g></g></g><g fill="#ffffff" fill-opacity="1"><g transform="translate(187.487362, 195.15885)"><g><path d="M 33.597656 -25.597656 C 33.597656 -29.117188 30.71875 -31.996094 27.199219 -31.996094 L 1.601562 -31.996094 L 1.601562 0 L 8 0 L 8 -12.800781 L 11.757812 -12.800781 L 23.597656 -0.960938 C 24.238281 -0.320312 25.039062 0 25.917969 0 L 33.597656 0 L 33.597656 -6.398438 L 27.199219 -6.398438 L 20.796875 -12.800781 L 27.199219 -12.800781 C 30.71875 -12.800781 33.597656 -15.679688 33.597656 -19.199219 Z M 27.199219 -25.597656 L 27.199219 -19.199219 L 8 -19.199219 L 8 -25.597656 Z M 27.199219 -25.597656 "/></g></g></g><g fill="#ffffff" fill-opacity="1"><g transform="translate(222.68387, 195.15885)"><g><path d="M 8 -31.996094 C 4.480469 -31.996094 1.601562 -29.117188 1.601562 -25.597656 L 1.601562 0 L 8 0 L 8 -12.800781 L 27.199219 -12.800781 L 27.199219 0 L 33.597656 0 L 33.597656 -25.597656 C 33.597656 -29.117188 30.71875 -31.996094 27.199219 -31.996094 Z M 8 -25.597656 L 27.199219 -25.597656 L 27.199219 -19.199219 L 8 -19.199219 Z M 8 -25.597656 "/></g></g></g><g fill="#ffffff" fill-opacity="1"><g transform="translate(257.880378, 195.15885)"><g><path d="M 33.597656 0 L 33.597656 -6.398438 L 8 -6.398438 L 8 -25.597656 L 33.597656 -25.597656 L 33.597656 -31.996094 L 8 -31.996094 C 4.480469 -31.996094 1.601562 -29.117188 1.601562 -25.597656 L 1.601562 -6.398438 C 1.601562 -2.878906 4.480469 0 8 0 Z M 33.597656 0 "/></g></g></g><g fill="#ffffff" fill-opacity="1"><g transform="translate(293.076885, 195.15885)"><g><path d="M 33.597656 -31.996094 L 1.601562 -31.996094 L 1.601562 -25.597656 L 14.398438 -25.597656 L 14.398438 0 L 20.796875 0 L 20.796875 -25.597656 L 33.597656 -25.597656 Z M 33.597656 -31.996094 "/></g></g></g><path fill="#ffffff" d="M 47.769531 201.25 L 325.140625 201.25 L 325.140625 204.359375 Z M 47.769531 201.25 " fill-opacity="1" fill-rule="nonzero"/><g clip-path="url(#aa91a4eb13)"><path fill="#ffbd59" d="M 346.296875 187.5 L 327.058594 187.5 L 324.09375 193.453125 L 28.695312 193.453125 L 322.199219 193.453125 L 325.507812 195.933594 L 328.460938 190.816406 L 341.066406 190.816406 L 330.546875 209.851562 L 67.679688 209.851562 L 331.960938 212.320312 L 346.296875 187.5 " fill-opacity="1" fill-rule="nonzero"/></g><g fill="#ffffff" fill-opacity="1"><g transform="translate(231.902831, 234.569896)"><g><path d="M 16.796875 -15.996094 L 4 -15.996094 C 2.238281 -15.996094 0.800781 -14.554688 0.800781 -12.796875 L 0.800781 -3.199219 C 0.800781 -1.441406 2.238281 0 4 0 L 13.597656 0 C 15.375 0 16.796875 -1.460938 16.796875 -3.199219 L 16.796875 -9.597656 L 7.199219 -9.597656 L 7.199219 -6.398438 L 13.597656 -6.398438 L 13.597656 -3.199219 L 4 -3.199219 L 4 -12.796875 L 16.796875 -12.796875 Z M 16.796875 -15.996094 "/></g></g></g><g fill="#ffffff" fill-opacity="1"><g transform="translate(255.555896, 234.569896)"><g><path d="M 4 -15.996094 C 2.238281 -15.996094 0.800781 -14.554688 0.800781 -12.796875 L 0.800781 0 L 4 0 L 4 -6.398438 L 13.597656 -6.398438 L 13.597656 0 L 16.796875 0 L 16.796875 -12.796875 C 16.796875 -14.554688 15.355469 -15.996094 13.597656 -15.996094 Z M 4 -12.796875 L 13.597656 -12.796875 L 13.597656 -9.597656 L 4 -9.597656 Z M 4 -12.796875 "/></g></g></g><g fill="#ffffff" fill-opacity="1"><g transform="translate(279.208961, 234.569896)"><g><path d="M 4 -15.996094 C 2.238281 -15.996094 0.800781 -14.554688 0.800781 -12.796875 L 0.800781 0 L 4 0 L 4 -12.796875 L 7.199219 -12.796875 L 7.199219 0 L 10.398438 0 L 10.398438 -12.796875 L 13.597656 -12.796875 L 13.597656 0 L 16.796875 0 L 16.796875 -12.796875 C 16.796875 -14.554688 15.355469 -15.996094 13.597656 -15.996094 Z M 4 -15.996094 "/></g></g></g><g fill="#ffffff" fill-opacity="1"><g transform="translate(302.862026, 234.569896)"><g><path d="M 16.796875 -15.996094 L 4 -15.996094 C 2.238281 -15.996094 0.800781 -14.554688 0.800781 -12.796875 L 0.800781 -3.199219 C 0.800781 -1.441406 2.238281 0 4 0 L 16.796875 0 L 16.796875 -3.199219 L 4 -3.199219 L 4 -6.398438 L 16.796875 -6.398438 L 16.796875 -9.597656 L 4 -9.597656 L 4 -12.796875 L 16.796875 -12.796875 Z M 16.796875 -15.996094 "/></g></g></g></svg>